<?xml version="1.0" encoding="UTF-8" standalone="no"?>
<svg
   version="1.1"
   width="0.63559508in"
   height="0.46437559in"
   viewBox="0 0 45.762903 33.435109"
   id="svg132"
   sodipodi:docname="Logo Nomad - CorelDraw20.cdr"
   xmlns:inkscape="http://www.inkscape.org/namespaces/inkscape"
   xmlns:sodipodi="http://sodipodi.sourceforge.net/DTD/sodipodi-0.dtd"
   xmlns="http://www.w3.org/2000/svg"
   xmlns:svg="http://www.w3.org/2000/svg">
  <defs
     id="defs132" />
  <sodipodi:namedview
     id="namedview132"
     pagecolor="#ffffff"
     bordercolor="#000000"
     borderopacity="0.25"
     inkscape:showpageshadow="2"
     inkscape:pageopacity="0.0"
     inkscape:pagecheckerboard="0"
     inkscape:deskcolor="#d1d1d1"
     inkscape:document-units="in">
    <inkscape:page
       x="0"
       y="0"
       width="45.762901"
       height="33.435108"
       id="page2"
       margin="0"
       bleed="0" />
  </sodipodi:namedview>
  <g
     id="Layer1000"
     transform="translate(-380.48557,-452.1984)">
    <defs
       id="defs6" />
    <defs
       id="defs11" />
    <defs
       id="defs25" />
    <g
       id="Layer1009">
      <path
         d="m 403.7117,475.435 c -0.0521,0.0257 -0.1044,0.0507 -0.1574,0.0743 -0.5208,0.2317 -1.0562,0.4322 -1.5984,0.609 -0.5393,0.1762 -1.0863,0.3291 -1.6367,0.4661 -0.8137,0.2025 -1.6438,0.3443 -2.4769,0.4375 -0.8901,0.0996 -1.7876,0.1443 -2.6831,0.1421 -1.6927,-0.004 -3.3933,-0.1653 -5.0446,-0.5445 -1.5048,-0.3459 -2.9654,-0.8731 -4.3187,-1.6206 -1.351,-0.7462 -2.5805,-1.7428 -3.5112,-2.9803 -0.8866,-1.1788 -1.4579,-2.5174 -1.6821,-3.9767 -0.1926,-1.254 -0.1488,-2.5237 0.1413,-3.7593 0.292,-1.2449 0.8247,-2.4156 1.5514,-3.4671 0.2965,-0.429 0.6249,-0.8375 0.9757,-1.2229 0.3591,-0.3945 0.7434,-0.7681 1.1491,-1.1141 0.3214,-0.2744 0.6563,-0.5329 1.0003,-0.7783 0.3684,-0.263 0.7475,-0.5115 1.1341,-0.7468 0.01,-0.006 0.0197,-0.0117 0.0294,-0.0174 0.0176,-0.0953 0.0401,-0.1885 0.0731,-0.2833 0.3909,-1.1196 1.2992,-2.0011 2.3219,-2.563 1.0567,-0.5805 2.3255,-0.8736 3.5277,-0.7304 0.249,0.0296 0.4928,0.0756 0.7335,0.1467 0.2172,0.064 0.4253,0.1469 0.6315,0.2401 0.0757,0.0344 0.1489,0.07 0.2208,0.1079 l 0.1624,-0.04 c 0.8119,-0.2003 1.6361,-0.3438 2.4651,-0.4535 0.8263,-0.1093 1.6567,-0.1829 2.488,-0.2369 2.423,-0.1579 4.9067,0.1635 7.3093,0.4609 3.5807,0.4432 7.5498,0.9718 11.0329,-0.2128 0.1187,-0.0403 0.2364,-0.0908 0.3521,-0.139 0.242,-0.1006 0.4884,-0.2039 0.7441,-0.2645 l 1.8809,-0.4475 -0.7222,1.7935 c -0.2445,0.6072 -0.8027,1.1227 -1.2838,1.5531 l -0.0353,0.0314 c -0.0805,0.0721 -0.1609,0.1414 -0.241,0.2084 0.2566,-0.0548 0.5107,-0.1202 0.7654,-0.1975 0.4515,-0.1366 0.8975,-0.2996 1.3297,-0.4883 0.3833,-0.1673 0.7629,-0.3573 1.1189,-0.5772 0.6011,-0.3713 1.1473,-0.8008 1.6917,-1.2486 0.1584,-0.1304 0.3301,-0.2798 0.503,-0.389 l 1.597,-1.0081 -0.0643,1.8874 c -0.0191,0.5575 -0.1961,1.1482 -0.3946,1.6668 -0.2352,0.6134 -0.5517,1.2674 -0.9054,1.8214 -1.1066,1.7326 -2.4012,2.3069 -4.1791,2.8157 0.0835,0.0145 0.1666,0.0295 0.2495,0.0455 0.806,0.1545 1.6171,0.3778 2.3798,0.6819 0.3455,0.1379 0.6907,0.2809 1.0276,0.4396 0.3626,0.1711 0.8159,0.4012 1.0911,0.6947 l 1.7933,1.9126 -2.611,-0.2332 c -0.3634,-0.0322 -0.7262,-0.0698 -1.0889,-0.1081 -1.5251,-0.1609 -2.4358,-0.1838 -3.984,0.1148 -0.9465,0.1827 -1.8478,0.4532 -2.7053,0.899 -0.8065,0.4195 -1.5242,0.9669 -2.2176,1.5508 -0.368,0.3099 -0.8116,0.8385 -1.1394,1.2016 -0.4817,0.5331 -1.0425,1.1301 -1.4739,1.7007 l -0.0179,0.0239 -1.1135,1.2837 c 0.0148,0.0167 0.0295,0.0335 0.0441,0.0502 0.384,0.4417 0.7389,0.9016 1.0939,1.3666 0.2144,0.281 0.429,0.5623 0.6526,0.8361 0.2116,0.2589 0.4108,0.5286 0.6036,0.8015 0.1887,0.2669 0.3716,0.5376 0.5536,0.8089 l 1.0374,1.5487 c 0.3688,0.5504 0.7237,1.1119 1.045,1.6914 0.3512,0.6332 0.6913,1.3307 0.883,2.0299 0.1517,0.5538 0.1753,1.1212 0.0174,1.6766 -0.1322,0.465 -0.3778,0.8722 -0.7003,1.2297 -0.809,0.8972 -1.9344,1.7586 -3.0122,2.3106 -0.9173,0.4698 -2.0009,0.8158 -3.0399,0.6392 -0.3732,-0.0636 -0.7379,-0.1838 -1.0845,-0.3348 -0.3794,-0.1651 -0.7448,-0.3696 -1.091,-0.5958 -0.6151,-0.402 -1.3688,-0.8984 -1.7397,-1.5503 -0.3349,-0.5887 -0.3259,-1.1992 -0.3278,-1.8549 -10e-4,-0.3314 -0.005,-0.661 -0.021,-0.9922 -0.0177,-0.3688 -0.049,-0.7373 -0.0914,-1.1042 -0.0411,-0.354 -0.0928,-0.7077 -0.1588,-1.0579 -0.1281,-0.6796 -0.3271,-1.3789 -0.5757,-2.0241 -0.0771,-0.2 -0.1687,-0.4223 -0.2736,-0.6374 z m 2.3007,-2.3422 -1.3656,0.8838 c 0.252,0.4102 0.4577,0.7767 0.6356,1.1623 0.1907,0.4136 0.3493,0.8486 0.4984,1.3829 0.1437,0.5161 0.2636,1.0434 0.3577,1.582 0.0941,0.5399 0.1634,1.0942 0.2052,1.6625 0.0371,0.4998 0.0323,0.9088 0.0282,1.254 -0.01,0.8254 -0.0147,1.2681 0.6165,1.78 0.2127,0.1723 0.862,0.6518 1.473,0.9605 0.3179,0.1607 0.6215,0.2741 0.8348,0.2681 0.2035,-0.8853 0.224,-1.8825 0.1253,-2.875 -0.1203,-1.2079 -0.4175,-2.4079 -0.7776,-3.393 -0.2523,-0.691 -0.5173,-1.333 -0.8222,-1.9474 -0.3038,-0.6119 -0.6479,-1.197 -1.0601,-1.7765 z m -19.5975,-6.3578 c -0.8556,-0.3763 -1.653,-0.7271 -1.9754,-0.8212 -0.0384,0.0703 -0.0735,0.1524 -0.1036,0.2436 -0.1425,0.4307 -0.1806,1.0569 -0.03,1.6768 0.1498,0.6165 0.4872,1.2248 1.0955,1.6227 0.1797,0.1175 0.3835,0.2171 0.6135,0.2931 0.4096,0.1354 0.8471,0.1692 1.2625,0.1173 0.43,-0.0537 0.8359,-0.1995 1.1617,-0.4193 1.1129,-0.7506 0.9401,-1.116 0.7845,-1.4448 -0.0264,-0.0558 -0.0524,-0.1109 -0.0744,-0.1688 -0.4676,-0.1025 -1.6477,-0.6215 -2.7343,-1.0994 z m 7.595,-1.8935 c -1.684,1.1017 -3.801,2.4864 -4.2468,2.748 0.1006,0.6549 0.5885,1.1523 0.9432,1.514 l 0.0135,0.0138 c 0.0689,0.07 0.1825,0.1604 0.3094,0.2508 0.1446,0.1033 0.3038,0.2052 0.4336,0.2786 0.7443,0.42 1.5947,0.5727 2.4329,0.5261 0.9389,-0.0521 1.8618,-0.3541 2.6052,-0.8104 0.2688,-0.165 0.4804,-0.3057 0.6736,-0.4616 0.1915,-0.1547 0.3662,-0.3255 0.5626,-0.5515 l 0.4093,-0.5607 c 0.1184,-0.1942 0.2253,-0.4339 0.3064,-0.6874 0.0784,-0.2438 0.1328,-0.4999 0.151,-0.7398 0.028,-0.3681 -0.008,-0.7276 -0.0879,-1.062 -0.0907,-0.3808 -0.2373,-0.7296 -0.4086,-1.0227 -0.1478,-0.2529 -0.372,-0.5702 -0.607,-0.8421 -0.177,-0.2046 -0.3592,-0.3831 -0.5172,-0.4869 -0.1767,0.0716 -0.5136,0.2915 -0.7369,0.4373 l -0.1497,0.0969 c -0.2486,0.1572 -1.0925,0.7092 -2.0866,1.3596 z m -10.0665,0.7923 c -0.2416,-0.1145 -0.4982,-0.2369 -0.5923,-0.4468 l -0.0645,-0.1437 0.1576,-0.009 c 0.3508,-0.0201 2.3145,0.8029 3.7297,1.3962 0.5305,0.2222 0.984,0.4124 1.2364,0.51 0.0685,0.0266 0.1353,0.0574 0.2036,0.089 0.2385,0.11 0.5006,0.2309 0.718,0.1061 l 3.2686,-2.1348 c 0.5822,-0.3975 1.0789,-0.7179 1.6162,-1.0643 l 0.3354,-0.2205 c 0.852,-0.5649 2.7062,-1.7946 3.2374,-1.7207 l 0.137,0.0192 -0.0507,0.1283 c -0.0265,0.0671 -0.0999,0.1431 -0.1874,0.2146 -0.0752,0.0618 -0.1636,0.1231 -0.2373,0.1711 l 0.0115,0.0116 c 0.2052,0.208 0.6551,0.6645 0.8685,0.9693 0.7241,1.0331 0.9837,2.0294 0.908,2.9369 -0.0546,0.6542 -0.2832,1.2612 -0.6374,1.8018 -0.3519,0.5373 -0.8293,1.0096 -1.3835,1.398 -1.18,0.8269 -2.7116,1.2724 -4.128,1.1544 -0.4062,-0.0339 -0.7801,-0.1204 -1.1244,-0.2389 -0.3429,-0.118 -0.6577,-0.2683 -0.9469,-0.4303 -0.5105,-0.2856 -0.78,-0.5933 -1.0806,-0.9364 -0.0657,-0.0749 -0.1332,-0.1518 -0.2059,-0.2314 -0.1947,0.2821 -0.4007,0.5332 -0.6553,0.7496 -0.2897,0.2461 -0.641,0.4455 -1.1079,0.5906 -0.8854,0.2752 -1.7133,0.2127 -2.4033,-0.088 -0.4259,-0.1854 -0.7991,-0.4613 -1.1005,-0.804 -0.3009,-0.3419 -0.5313,-0.7512 -0.6723,-1.2045 -0.2396,-0.7705 -0.2199,-1.667 0.1503,-2.5736 z m 6.8732,6.5083 c -0.2644,-0.031 -0.551,-0.0652 -0.9026,-0.0895 -0.005,0.2717 0.0311,0.437 0.1172,0.5515 0.0973,0.1294 0.2741,0.2116 0.539,0.3199 l 0.1643,0.068 c 0.5961,0.2474 1.6075,0.6679 2.2167,0.5134 0.1769,-0.0447 0.3071,-0.1244 0.3826,-0.2352 0.0725,-0.1065 0.0973,-0.2474 0.0674,-0.4189 -0.0307,-0.176 -0.0516,-0.3174 -0.0679,-0.429 -0.0262,-0.1802 -0.0404,-0.275 -0.061,-0.3039 -0.004,-9e-4 -0.0482,0.006 -0.1378,0.0195 -0.047,0.007 -0.1025,0.0156 -0.1725,0.0235 -1.0072,0.1154 -1.5133,0.0557 -2.1454,-0.0193 z m 4.7346,-0.5011 c -0.6463,0.2195 -1.3005,0.3811 -1.836,0.4265 0.0102,0.1778 0.0413,0.4191 0.0875,0.6371 0.042,0.197 0.0945,0.3696 0.1515,0.4439 0.3445,0.448 0.958,0.6158 1.608,0.6539 0.667,0.039 1.3746,-0.0587 1.8818,-0.1329 0.1127,-0.0167 0.227,-0.0457 0.3383,-0.0856 0.3069,-0.1102 0.5989,-0.3036 0.8017,-0.5494 0.1967,-0.2387 0.3085,-0.5273 0.2631,-0.8359 -0.01,-0.0659 -0.026,-0.1323 -0.0498,-0.1984 -0.0356,-0.0989 -0.2351,-0.4925 -0.4341,-0.868 -0.1485,-0.2802 -0.2946,-0.5472 -0.3677,-0.6681 -0.0748,0.0408 -0.1384,0.0847 -0.2058,0.1312 -0.0583,0.0402 -0.1196,0.0827 -0.1946,0.1277 -0.538,0.3238 -1.2876,0.6612 -2.0439,0.918 z m -6.0571,0.3406 -0.7007,-0.1861 c 0.0666,0.0682 0.1437,0.1384 0.2259,0.2073 0.1654,0.1386 0.3504,0.2703 0.513,0.3708 z m 8.8751,-1.789 c 0.0262,0.0677 0.0714,0.1615 0.1267,0.2691 0.0705,0.1369 0.1593,0.2989 0.2479,0.4596 0.0652,0.1179 0.1214,0.2341 0.1751,0.3458 0.1676,0.3476 0.3147,0.6524 0.6746,0.8261 0.4356,0.2105 0.8639,0.311 1.2832,0.3068 0.426,-0.004 0.8451,-0.1165 1.2555,-0.3312 0.597,-0.3123 1.4113,-0.8517 1.8591,-1.5239 0.3027,-0.4543 0.4356,-0.9712 0.2088,-1.5188 -0.0816,-0.1971 -0.1345,-0.2993 -0.195,-0.3594 -0.0553,-0.0549 -0.1327,-0.0836 -0.2605,-0.1299 -0.2468,-0.0898 -0.4712,-0.1682 -0.6884,-0.244 -0.3054,-0.1065 -0.5976,-0.2086 -0.9102,-0.3273 l -0.1752,-0.0668 c -0.3931,-0.1515 -0.9881,-0.3799 -1.3403,-0.4655 -0.1626,0.5135 -0.491,1.0033 -0.8766,1.4488 -0.4062,0.4689 -0.8749,0.8887 -1.2786,1.2353 -0.065,0.0559 -0.0909,0.0681 -0.1061,0.0753 z m 1.4465,-8.1898 -0.278,0.0654 c 0.0771,0.1036 0.1581,0.2022 0.2417,0.3039 0.1349,0.1643 0.2765,0.3367 0.4166,0.5445 0.1136,0.1682 0.2224,0.3584 0.3201,0.5613 0.0935,0.1942 0.177,0.4005 0.2442,0.6099 0.3641,1.1356 0.2539,1.698 0.1151,2.4037 -0.0318,0.1635 -0.0657,0.3353 -0.0948,0.5217 0.2432,0.1104 0.9449,0.3493 1.4468,0.5199 0.1995,0.0679 0.3671,0.1251 0.4747,0.1639 0.1393,0.0502 0.261,0.0962 0.3823,0.142 0.9275,0.3498 1.8305,0.6904 2.8335,0.2411 0.2986,-0.1337 0.3557,-0.3413 0.4476,-0.6758 l 0.0211,-0.0766 c 0.1131,-0.406 0.1758,-0.7935 0.1927,-1.1609 0.0487,-1.0604 -0.2832,-1.9574 -0.8762,-2.6579 -0.5959,-0.7041 -1.4566,-1.2125 -2.461,-1.4923 -0.4856,-0.1354 -1.0052,-0.2174 -1.5446,-0.2422 -0.7719,-0.0355 -1.2761,0.0845 -1.8818,0.2284 z m -1.0279,0.1604 c -0.0663,-0.0534 -0.1344,-0.1078 -0.2136,-0.187 l -0.0679,-0.0679 0.0116,-0.0147 c -0.005,-0.0255 0.0159,-0.059 0.0767,-0.1097 0.0656,-0.054 0.1591,-0.0935 0.2339,-0.1309 0.6472,-0.2905 1.4402,-0.4608 2.2364,-0.5113 0.8189,-0.0521 1.6441,0.0222 2.3188,0.2212 0.3014,0.0891 0.5869,0.1923 0.8555,0.3089 1.2433,0.5387 2.1159,1.3576 2.5835,2.3634 0.4677,1.0055 0.5292,2.1954 0.151,3.4768 -0.0817,0.2772 -0.1846,0.5595 -0.3087,0.8455 -0.2713,0.6262 -0.7597,1.3023 -1.3289,1.9259 -0.6392,0.7 -1.3822,1.3365 -2.0359,1.7637 l -0.1643,0.1083 c -0.224,0.1485 -0.4646,0.3082 -0.7145,0.4393 -1.0847,0.5688 -2.0749,0.9959 -3.1235,1.2919 -1.049,0.2963 -2.1564,0.4614 -3.4745,0.5066 -1.2025,0.0411 -2.5105,-0.0776 -3.7409,-0.386 -1.1006,-0.2757 -2.141,-0.7035 -2.9916,-1.304 -0.2061,-0.1455 -0.5997,-0.4817 -0.9057,-0.8338 -0.2151,-0.2476 -0.3895,-0.5066 -0.4331,-0.7232 l -0.0326,-0.1614 0.1609,0.034 c 0.1979,0.0418 0.3973,0.1045 0.6023,0.1692 0.212,0.0667 0.4305,0.1356 0.6541,0.1833 1.5444,0.329 3.1068,0.3647 4.5973,0.0992 1.4535,-0.2587 2.8387,-0.8038 4.0723,-1.6413 0.5438,-0.3691 1.2119,-0.9582 1.7299,-1.7023 0.3904,-0.5605 0.6948,-1.2085 0.7939,-1.9149 0.0888,-0.6323 0.036,-1.2619 -0.1326,-1.8449 -0.1743,-0.6039 -0.4728,-1.1586 -0.8663,-1.6153 -0.0624,-0.0724 -0.1094,-0.1323 -0.1528,-0.1876 -0.0627,-0.0799 -0.1184,-0.1512 -0.2077,-0.2408 -0.0666,-0.0669 -0.1244,-0.1133 -0.183,-0.1602 z m 7.989,10.2756 c -0.0969,0.0755 -0.208,0.1625 -0.2745,0.233 l 0.8076,1.0083 c 0.4836,0.7103 0.8098,1.2394 1.0974,1.8123 0.2876,0.5731 0.534,1.1841 0.8577,2.0583 0.3615,0.9761 0.6771,2.2626 0.8074,3.5575 0.1033,1.0272 0.0898,2.0609 -0.1095,2.9505 0.4435,-0.03 0.9897,-0.2529 1.5266,-0.5471 0.9146,-0.5008 1.7932,-1.2045 2.1093,-1.5275 l 0.0319,-0.0326 c 0.4952,-0.5049 0.9284,-0.9468 0.6458,-1.9326 -0.0922,-0.3211 -0.2577,-0.6936 -0.4398,-1.053 -0.1833,-0.3617 -0.3844,-0.7112 -0.5455,-0.983 -0.1784,-0.3012 -0.3723,-0.617 -0.5704,-0.9294 -0.2049,-0.3233 -0.4071,-0.6325 -0.5949,-0.91 -0.7124,-1.0526 -1.2724,-1.8463 -1.8653,-2.6234 -0.5743,-0.7526 -1.1788,-1.4875 -1.9828,-2.4256 l -1.3468,1.219 c -0.0407,0.0365 -0.0951,0.079 -0.1542,0.1253 z m -13.715,-17.3881 c -0.5229,-0.1841 -1.1519,-0.2667 -1.6753,-0.2011 -0.6695,0.084 -1.2917,0.322 -1.8154,0.6443 -0.5738,0.353 -1.0279,0.8056 -1.2957,1.2658 -0.194,0.3339 -0.2869,0.6137 -0.2995,0.8449 -0.0138,0.2559 0.0727,0.453 0.2283,0.5992 0.1633,0.1531 0.4035,0.2553 0.6858,0.3136 0.5084,0.1053 1.1465,0.0686 1.7295,-0.0641 0.2497,-0.0569 0.5339,-0.1513 0.8299,-0.2736 0.6537,-0.2701 1.3609,-0.6746 1.8805,-1.1122 0.499,-0.4201 0.8214,-0.8637 0.7384,-1.2284 -0.006,-0.0269 -0.0147,-0.0539 -0.0257,-0.0804 -0.1203,-0.291 -0.5038,-0.5398 -0.9808,-0.708 z m 2.617,-0.0356 c -0.4297,0.0741 -0.8513,0.159 -1.2222,0.2578 l 0.0746,0.145 c 0.2752,0.5263 0.4468,0.8547 -0.5653,1.8968 -0.5389,0.5549 -1.3014,1.036 -2.1171,1.3743 -0.7549,0.3133 -1.5584,0.5056 -2.2739,0.5224 -0.7298,0.0172 -1.372,-0.1482 -1.7882,-0.5524 -0.1244,-0.1206 -0.2283,-0.2624 -0.308,-0.426 -0.2219,0.0755 -0.5522,0.288 -0.9063,0.549 -0.6578,0.4857 -1.3882,1.1361 -1.6843,1.4125 -0.901,0.8409 -1.652,1.8843 -2.1549,3.0546 -0.4685,1.0904 -0.7219,2.2908 -0.6805,3.5396 0.0241,0.7283 0.1257,1.3448 0.3036,1.9278 0.1783,0.5837 0.4345,1.1366 0.7673,1.7366 0.0363,0.0654 0.0656,0.1179 0.0975,0.1695 0.031,0.0503 0.0652,0.1008 0.1118,0.1635 0.4905,0.6614 0.9831,1.2178 1.5451,1.7055 0.5615,0.4875 1.1942,0.908 1.9648,1.298 2.2536,1.1407 5.0108,1.7578 7.8041,1.8364 2.7921,0.0785 5.6188,-0.3806 8.0132,-1.3914 3.2917,-1.3898 5.0097,-3.3655 7.0198,-5.6772 0.2555,-0.2938 0.5155,-0.5926 0.7393,-0.8466 0.1091,-0.1233 0.1405,-0.1617 0.2128,-0.2504 0.1949,-0.2401 0.4127,-0.4726 0.6178,-0.7054 0.1315,-0.1685 0.3709,-0.4278 0.6276,-0.6917 0.3183,-0.3269 0.666,-0.6641 0.8673,-0.844 0.2114,-0.1889 0.4205,-0.3725 0.6397,-0.5476 0.2231,-0.1781 0.4595,-0.3503 0.7244,-0.5158 0.4953,-0.3093 1.0045,-0.5896 1.5588,-0.8361 0.5537,-0.2463 1.1497,-0.4574 1.8171,-0.6275 0.6395,-0.163 1.255,-0.2766 1.8775,-0.3443 0.6206,-0.0679 1.2481,-0.0899 1.9131,-0.0704 0.0583,0.002 0.1067,0.005 0.1537,0.009 l 0.0172,10e-4 c -1.0892,-0.3996 -2.2185,-0.6193 -3.3521,-0.6638 -1.2733,-0.05 -2.5532,0.1207 -3.7886,0.5052 l -0.1823,0.0569 0.0447,-0.1855 c 0.0684,-0.285 0.3724,-0.6383 0.7494,-0.9724 0.4827,-0.4277 1.0926,-0.8328 1.4676,-1.0127 0.8015,-0.3844 1.5944,-0.6004 2.3565,-0.8081 1.6404,-0.4469 3.138,-0.855 4.2263,-2.858 0.1006,-0.1854 0.238,-0.4434 0.3595,-0.7126 0.0757,-0.1672 0.1448,-0.337 0.1934,-0.4926 -0.1039,0.0735 -0.2327,0.1689 -0.3646,0.2664 -0.2202,0.1632 -0.4488,0.3324 -0.5984,0.4247 -0.2105,0.1299 -0.4118,0.2472 -0.619,0.3629 -0.2034,0.1138 -0.4162,0.2283 -0.6512,0.3538 -2.1286,1.1362 -4.0785,1.1977 -5.9177,1.2558 -0.8774,0.0277 -1.7297,0.0546 -2.5619,0.199 -0.24,0.0415 -0.4671,0.089 -0.7002,0.1377 l -0.118,0.0247 c -0.1434,0.0295 -0.2777,0.071 -0.4101,0.1121 -0.1306,0.0403 -0.2599,0.0803 -0.3957,0.1092 l -0.2034,0.0434 0.1063,-0.2534 c 0.0103,-0.0257 0.0154,-0.0381 0.025,-0.0532 0.011,-0.0172 0.0183,-0.0237 0.0319,-0.0368 0.008,-0.008 0.0222,-0.0209 0.0489,-0.0507 0.0569,-0.0569 0.1118,-0.1161 0.1687,-0.1728 0.0541,-0.0539 0.1127,-0.1052 0.176,-0.1559 0.0636,-0.0507 0.1313,-0.1005 0.2036,-0.1507 0.5798,-0.404 1.3002,-0.6019 1.9936,-0.7924 0.306,-0.0842 0.6069,-0.1668 0.891,-0.2673 0.3229,-0.1139 0.6302,-0.2367 0.9231,-0.3694 0.2931,-0.1329 0.572,-0.2758 0.8385,-0.4298 0.1863,-0.1079 0.5834,-0.3671 0.9252,-0.6303 0.0972,-0.0748 0.1897,-0.1497 0.271,-0.2208 -0.1028,0.0308 -0.2096,0.0656 -0.3167,0.1003 -0.1875,0.0611 -0.3764,0.1226 -0.558,0.1664 -0.7457,0.1793 -1.491,0.2894 -2.2412,0.3546 -0.7469,0.0647 -1.5046,0.0849 -2.2751,0.0845 -0.9633,-3e-4 -1.9919,-0.0657 -3.017,-0.1655 -1.0275,-0.1001 -2.0484,-0.2343 -2.9959,-0.3727 -1.5894,-0.2319 -3.0652,-0.3957 -4.5403,-0.4462 -1.475,-0.0505 -2.9526,0.0114 -4.5464,0.23 -0.4402,0.0603 -0.9297,0.1298 -1.4138,0.2134 z m 9.1381,20.7371 c -0.2233,-0.5793 -0.4827,-1.1036 -0.7583,-1.4636 -0.1412,0.0463 -0.381,0.1666 -0.584,0.2685 -0.1113,0.0558 -0.2125,0.1065 -0.2825,0.1377 -0.4863,0.2166 -0.9945,0.4074 -1.5125,0.5763 -0.5171,0.1687 -1.0466,0.3168 -1.5755,0.4485 -0.7622,0.1896 -1.5558,0.3266 -2.3608,0.4166 -0.8533,0.0955 -1.7223,0.1386 -2.5821,0.1366 -1.7111,-0.004 -3.3353,-0.1747 -4.847,-0.522 -1.4765,-0.3394 -2.8469,-0.8471 -4.0873,-1.5322 -1.1597,-0.6406 -2.3303,-1.5397 -3.2298,-2.7359 -0.7408,-0.9845 -1.2974,-2.1697 -1.5136,-3.576 -0.1813,-1.1802 -0.1277,-2.331 0.128,-3.4205 0.2658,-1.1329 0.7505,-2.1997 1.4169,-3.1641 0.2694,-0.3898 0.5749,-0.7703 0.9017,-1.1297 0.3374,-0.3707 0.6989,-0.7205 1.0685,-1.0359 0.2986,-0.2549 0.6144,-0.4989 0.9394,-0.731 0.3525,-0.2515 0.7158,-0.4891 1.0799,-0.7108 0.0509,-0.031 0.1025,-0.0533 0.1538,-0.0755 0.0874,-0.0376 0.1749,-0.0755 0.2068,-0.1393 0.0327,-0.0645 0.0463,-0.1634 0.0603,-0.2642 0.0135,-0.0973 0.0273,-0.1967 0.0595,-0.289 0.2979,-0.8531 1.0169,-1.5852 1.9098,-2.0758 0.9029,-0.4961 1.9867,-0.7468 2.9931,-0.6267 0.2248,0.0266 0.4111,0.0649 0.5869,0.1166 0.1754,0.0518 0.3379,0.1166 0.5162,0.1975 0.174,0.0786 0.2729,0.1385 0.3416,0.18 0.0511,0.0314 0.0807,0.0493 0.1069,0.0525 0.045,0.005 0.1248,-0.0144 0.3105,-0.0608 l 0.2046,-0.0505 c 0.7814,-0.1898 1.5701,-0.3298 2.369,-0.4354 0.7995,-0.106 1.6081,-0.1778 2.429,-0.2311 2.2652,-0.1476 4.6831,0.1517 7.142,0.4561 3.8649,0.4785 7.8326,0.9695 11.4292,-0.2536 0.1274,-0.0432 0.2673,-0.1015 0.4073,-0.1598 0.2117,-0.0881 0.4242,-0.1769 0.6081,-0.2206 l 0.2042,-0.0486 -0.0783,0.1948 c -0.1753,0.4357 -0.694,0.9011 -1.0514,1.2216 l -0.0351,0.0316 c -1.3025,1.1697 -2.563,1.5608 -3.9975,2.0056 -0.1937,0.0603 -0.3909,0.1212 -0.5919,0.1856 0.5698,-0.0773 1.1235,-0.0966 1.6855,-0.1161 0.3131,-0.011 0.6294,-0.022 0.9608,-0.0441 0.6415,-0.0429 1.1841,-0.0812 1.7079,-0.1521 0.5226,-0.0709 1.0319,-0.1752 1.6119,-0.3508 0.4854,-0.147 0.9711,-0.325 1.4281,-0.5246 0.4445,-0.1942 0.8636,-0.409 1.2304,-0.6356 0.7476,-0.4617 1.3847,-0.9857 1.7896,-1.3186 0.19,-0.1563 0.3303,-0.2717 0.4128,-0.3236 l 0.1731,-0.1094 -0.007,0.2047 c -0.014,0.4041 -0.1517,0.8969 -0.3362,1.3783 -0.2509,0.655 -0.5913,1.296 -0.824,1.6603 -1.1159,1.7469 -2.522,2.129 -4.1219,2.5633 -0.4274,0.1159 -0.869,0.2361 -1.312,0.3835 -0.4393,0.1462 -1.0735,0.4386 -1.6062,0.759 -0.2935,0.1763 -0.5542,0.3599 -0.7301,0.5291 l 0.1667,-0.0296 c 0.6538,-0.1159 1.2065,-0.214 1.9768,-0.2162 0.7267,-0.002 1.513,0.0803 2.2803,0.2274 0.784,0.1501 1.5509,0.3686 2.2174,0.6344 0.2563,0.1021 0.6341,0.2561 0.9777,0.418 0.3539,0.167 0.6785,0.3463 0.821,0.498 l 0.1946,0.2075 -0.283,-0.0253 c -0.4078,-0.0364 -0.7551,-0.0729 -1.0746,-0.1067 -1.4337,-0.1512 -2.3234,-0.2451 -4.2463,0.126 -1.1861,0.2289 -2.1148,0.5504 -2.9475,0.9835 -0.8347,0.434 -1.5743,0.9808 -2.3805,1.6597 -0.1961,0.1652 -0.6994,0.702 -1.2268,1.2857 -0.6454,0.7145 -1.3255,1.499 -1.5234,1.7607 l -1.6096,1.8559 c 0.0994,0.1289 0.2068,0.2424 0.3188,0.3606 0.0797,0.0846 0.1618,0.1714 0.2419,0.2634 0.3996,0.4598 0.7324,0.8961 1.0579,1.3227 0.222,0.2909 0.4407,0.5777 0.6709,0.8592 0.1914,0.2345 0.3808,0.49 0.566,0.7519 0.1817,0.257 0.3645,0.5278 0.5409,0.7907 l 1.0375,1.5488 c 0.2942,0.4381 0.6674,1.0165 1.006,1.6273 0.3403,0.6139 0.646,1.2611 0.803,1.8334 0.1263,0.4611 0.1169,0.8554 0.0198,1.1971 -0.0973,0.342 -0.2818,0.6291 -0.5052,0.8768 -0.6052,0.6711 -1.6465,1.5456 -2.7567,2.1143 -0.8369,0.4287 -1.7157,0.6847 -2.4839,0.5538 -0.2974,-0.0505 -0.5958,-0.1503 -0.8784,-0.2733 -0.3571,-0.1554 -0.6883,-0.3478 -0.9592,-0.5249 -1.6589,-1.0838 -1.66,-1.3484 -1.6639,-2.6618 -7e-4,-0.2843 -0.002,-0.6203 -0.0219,-1.0324 -0.0181,-0.3747 -0.0509,-0.7693 -0.0964,-1.1636 -0.0443,-0.3828 -0.1009,-0.7627 -0.1682,-1.1205 -0.1272,-0.6751 -0.3459,-1.468 -0.6199,-2.1793 z"
         style="fill:#ffffff;fill-rule:evenodd"
         id="path89" />
    </g>
  </g>
</svg>