<?xml version="1.0" encoding="UTF-8" standalone="no"?>
<svg
   version="1.1"
   width="7.9595866in"
   height="2.9347701in"
   viewBox="0 0 573.09094 211.30387"
   id="svg40"
   sodipodi:docname="Somente Logo Nomad - CorelDraw20.cdr"
   inkscape:export-filename="../logo-full.png"
   inkscape:export-xdpi="96"
   inkscape:export-ydpi="96"
   xmlns:inkscape="http://www.inkscape.org/namespaces/inkscape"
   xmlns:sodipodi="http://sodipodi.sourceforge.net/DTD/sodipodi-0.dtd"
   xmlns:xlink="http://www.w3.org/1999/xlink"
   xmlns="http://www.w3.org/2000/svg"
   xmlns:svg="http://www.w3.org/2000/svg">
  <defs
     id="defs40" />
  <sodipodi:namedview
     id="namedview40"
     pagecolor="#ffffff"
     bordercolor="#000000"
     borderopacity="0.25"
     inkscape:showpageshadow="2"
     inkscape:pageopacity="0.0"
     inkscape:pagecheckerboard="0"
     inkscape:deskcolor="#d1d1d1"
     inkscape:document-units="in">
    <inkscape:page
       x="0"
       y="0"
       width="573.09094"
       height="211.30388"
       id="page2"
       margin="0"
       bleed="0" />
  </sodipodi:namedview>
  <g
     id="Layer1000"
     transform="translate(-134.3841,-192.1882)">
    <defs
       id="defs3">
      <linearGradient
         id="grad1">
        <stop
           offset="0.0000%"
           stop-color="#06255d"
           stop-opacity="1.0000"
           id="stop1" />
        <stop
           offset="58.0000%"
           stop-color="#102a83"
           stop-opacity="1.0000"
           id="stop2" />
        <stop
           offset="100.0000%"
           stop-color="#06255d"
           stop-opacity="1.0000"
           id="stop3" />
      </linearGradient>
      <linearGradient
         xlink:href="#grad1"
         id="grad2"
         x1="238.16975"
         y1="224.84454"
         x2="238.16975"
         y2="360.6055"
         gradientTransform="scale(1.1699186,0.85476034)"
         gradientUnits="userSpaceOnUse" />
    </defs>
    <path
       d="m 359.2497,272.8356 c -0.181,0.0887 -0.3625,0.1758 -0.546,0.2573 -1.8079,0.8047 -3.6659,1.5002 -5.5476,2.1142 -1.8718,0.6109 -3.77,1.1419 -5.6806,1.6172 -2.8245,0.7032 -5.7048,1.195 -8.5964,1.5187 -3.089,0.3454 -6.2043,0.5006 -9.3124,0.4934 -5.8745,-0.0134 -11.7773,-0.5738 -17.5079,-1.8905 -5.2228,-1.2001 -10.2924,-3.0302 -14.9889,-5.6244 -4.6892,-2.59 -8.9562,-6.0486 -12.1865,-10.3435 -3.0772,-4.0912 -5.0599,-8.7371 -5.8379,-13.8017 -0.6686,-4.3521 -0.5165,-8.7593 0.4898,-13.0474 1.014,-4.3207 2.8627,-8.3841 5.3847,-12.0335 1.029,-1.4888 2.1688,-2.9065 3.3865,-4.2443 1.246,-1.3692 2.5802,-2.6653 3.9881,-3.8665 1.1156,-0.9521 2.2781,-1.8497 3.4715,-2.7013 1.2791,-0.913 2.5947,-1.775 3.9366,-2.5921 0.034,-0.0206 0.0681,-0.0407 0.1021,-0.0603 0.0608,-0.3305 0.1387,-0.6542 0.2531,-0.9831 1.3569,-3.886 4.5098,-6.9452 8.0592,-8.8954 3.6675,-2.0147 8.0711,-3.0324 12.2433,-2.5354 0.864,0.1031 1.7105,0.2629 2.5456,0.5094 0.7543,0.2221 1.476,0.5098 2.1921,0.8336 0.2624,0.1191 0.5165,0.2428 0.7666,0.3742 l 0.5629,-0.1386 c 2.8184,-0.695 5.6791,-1.1935 8.5562,-1.5739 2.8674,-0.3795 5.7497,-0.6347 8.6351,-0.8223 8.4093,-0.548 17.0294,0.5676 25.368,1.5997 12.4273,1.5383 26.2032,3.3725 38.2918,-0.7388 0.4119,-0.1397 0.8202,-0.315 1.2218,-0.482 0.8403,-0.3495 1.6951,-0.7078 2.5828,-0.9187 l 6.5281,-1.5527 -2.5065,6.225 c -0.8491,2.1069 -2.7859,3.8958 -4.4562,5.3898 l -0.1222,0.1093 c -0.2794,0.25 -0.5583,0.4908 -0.8367,0.7233 0.8909,-0.1903 1.7729,-0.4176 2.6565,-0.6857 1.5672,-0.4743 3.1154,-1.0398 4.6155,-1.695 1.3301,-0.5805 2.6478,-1.2399 3.883,-2.0029 2.0863,-1.2888 3.9819,-2.7792 5.8713,-4.3335 0.5501,-0.4526 1.146,-0.9712 1.7461,-1.3501 l 5.543,-3.4989 -0.2233,6.5508 c -0.0665,1.9347 -0.681,3.985 -1.3702,5.7847 -0.8156,2.1286 -1.9142,4.399 -3.1416,6.3214 -3.8412,6.0131 -8.3341,8.0066 -14.5049,9.7723 0.2897,0.0505 0.5784,0.1031 0.8661,0.1583 2.7972,0.5361 5.612,1.311 8.2592,2.3668 1.1997,0.4784 2.3977,0.9748 3.5664,1.5259 1.2584,0.5934 2.8318,1.3919 3.7871,2.4106 l 6.2245,6.638 -9.0625,-0.8089 c -1.2615,-0.1124 -2.5204,-0.2423 -3.7793,-0.3753 -5.2929,-0.5583 -8.4536,-0.6382 -13.8269,0.3985 -3.285,0.6341 -6.4132,1.5723 -9.3893,3.12 -2.7988,1.4558 -5.2899,3.3555 -7.6963,5.3821 -1.2775,1.0759 -2.8169,2.9106 -3.9552,4.1706 -1.6713,1.8502 -3.6179,3.9221 -5.115,5.9022 l -0.0624,0.083 -3.8644,4.4557 c 0.0516,0.0578 0.1026,0.116 0.1531,0.1743 1.3327,1.5332 2.5648,3.1292 3.7964,4.7428 0.7444,0.9754 1.4888,1.9518 2.2652,2.9019 0.7341,0.8986 1.4254,1.8343 2.0951,2.7818 0.6547,0.9259 1.2893,1.8657 1.9209,2.8076 l 3.6009,5.3749 c 1.2795,1.91 2.5117,3.8592 3.6267,5.8703 1.2187,2.1976 2.3993,4.6186 3.0648,7.0451 0.5264,1.9219 0.6084,3.8918 0.0604,5.8188 -0.4594,1.6141 -1.3115,3.0272 -2.4307,4.268 -2.8081,3.1138 -6.7143,6.1039 -10.4549,8.0196 -3.1834,1.6306 -6.9442,2.8318 -10.5498,2.2183 -1.2955,-0.2207 -2.5611,-0.6377 -3.7643,-1.162 -1.3167,-0.5733 -2.5849,-1.2826 -3.7866,-2.0678 -2.1348,-1.395 -4.7506,-3.1179 -6.0378,-5.3805 -1.1626,-2.0436 -1.1311,-4.1624 -1.1378,-6.4379 -0.004,-1.1502 -0.017,-2.2941 -0.0727,-3.4432 -0.0619,-1.2801 -0.1706,-2.5596 -0.3176,-3.8325 -0.1423,-1.229 -0.3222,-2.4565 -0.5511,-3.6721 -0.4443,-2.3585 -1.1352,-4.7851 -1.9981,-7.0245 -0.2676,-0.6944 -0.5857,-1.4657 -0.9496,-2.2122 z"
       style="fill:url(#grad2)"
       id="path3" />
    <defs
       id="defs10">
      <linearGradient
         id="grad3">
        <stop
           offset="0.0000%"
           stop-color="#f2c852"
           stop-opacity="1.0000"
           id="stop4" />
        <stop
           offset="23.0000%"
           stop-color="#ad6f15"
           stop-opacity="1.0000"
           id="stop5" />
        <stop
           offset="33.0000%"
           stop-color="#e7ba4b"
           stop-opacity="1.0000"
           id="stop6" />
        <stop
           offset="46.0000%"
           stop-color="#fcf5bc"
           stop-opacity="1.0000"
           id="stop7" />
        <stop
           offset="58.0000%"
           stop-color="#e7ba4b"
           stop-opacity="1.0000"
           id="stop8" />
        <stop
           offset="69.0000%"
           stop-color="#965c17"
           stop-opacity="1.0000"
           id="stop9" />
        <stop
           offset="100.0000%"
           stop-color="#e7ba4b"
           stop-opacity="1.0000"
           id="stop10" />
      </linearGradient>
      <linearGradient
         xlink:href="#grad3"
         id="grad4"
         x1="239.24696"
         y1="232.80692"
         x2="239.24696"
         y2="359.32364"
         gradientTransform="scale(1.1775767,0.84920158)"
         gradientUnits="userSpaceOnUse" />
    </defs>
    <path
       d="m 367.2348,264.7066 -4.7394,3.0667 c 0.8747,1.4239 1.5885,2.6958 2.206,4.0343 0.6619,1.4354 1.2122,2.9457 1.7292,4.8 0.4992,1.7907 0.9157,3.621 1.2419,5.4905 0.327,1.8739 0.5669,3.7975 0.7126,5.7702 0.1282,1.7339 0.1115,3.1538 0.0978,4.352 -0.0336,2.8649 -0.0514,4.4008 2.1398,6.1775 0.7376,0.5982 2.9909,2.2622 5.1116,3.334 1.1037,0.5575 2.1573,0.9511 2.8976,0.9303 0.7061,-3.0727 0.7778,-6.5337 0.435,-9.9786 -0.4174,-4.1918 -1.4494,-8.3571 -2.6987,-11.7756 -0.8762,-2.3981 -1.7955,-4.6264 -2.8539,-6.7587 -1.0542,-2.124 -2.2488,-4.1549 -3.6792,-6.166 z m -68.0169,-22.0664 c -2.9695,-1.3061 -5.7369,-2.5236 -6.8559,-2.85 -0.1335,0.2438 -0.2548,0.5286 -0.3598,0.8458 -0.4941,1.494 -0.6264,3.668 -0.104,5.819 0.52,2.1397 1.6908,4.2512 3.8023,5.6323 0.6234,0.4076 1.331,0.753 2.129,1.0171 1.4214,0.47 2.9401,0.5874 4.3821,0.4073 1.4925,-0.1867 2.9008,-0.6925 4.0321,-1.4554 3.862,-2.6053 3.2624,-3.8733 2.7228,-5.0141 -0.0919,-0.1939 -0.1826,-0.3853 -0.2584,-0.5863 -1.6233,-0.3556 -5.7188,-2.157 -9.4902,-3.8157 z m 26.3599,-6.5714 c -5.8445,3.8231 -13.192,8.6294 -14.7395,9.5368 0.3497,2.2732 2.0425,3.9997 3.274,5.255 l 0.047,0.0478 c 0.2387,0.2432 0.6332,0.5569 1.0736,0.8708 0.5018,0.3583 1.0539,0.7118 1.5049,0.9663 2.5834,1.458 5.5345,1.9878 8.444,1.8264 3.2582,-0.1808 6.4617,-1.2291 9.0418,-2.8126 0.9329,-0.5726 1.6673,-1.0611 2.3374,-1.6022 0.6651,-0.5369 1.2713,-1.1298 1.9528,-1.9138 l 1.4205,-1.9459 c 0.4109,-0.6746 0.7819,-1.5064 1.0638,-2.3862 0.2714,-0.8458 0.4605,-1.7348 0.5238,-2.5673 0.0973,-1.2778 -0.0291,-2.5256 -0.3053,-3.6863 -0.3146,-1.3219 -0.8235,-2.5319 -1.4182,-3.5493 -0.5128,-0.8777 -1.2906,-1.9789 -2.1064,-2.9229 -0.6143,-0.7099 -1.2463,-1.3292 -1.7949,-1.6899 -0.6133,0.2483 -1.7824,1.0121 -2.5574,1.5181 l -0.5197,0.3366 c -0.8631,0.5455 -3.7919,2.4614 -7.2422,4.7186 z m -34.9379,2.7495 c -0.8381,-0.3975 -1.7285,-0.8221 -2.0556,-1.5508 l -0.2238,-0.4983 0.547,-0.0312 c 1.2175,-0.0693 8.033,2.787 12.9449,4.8459 1.8413,0.7715 3.4152,1.4312 4.2908,1.7705 0.2381,0.0921 0.4697,0.1992 0.7064,0.3083 0.828,0.3823 1.7375,0.8015 2.4927,0.3686 l 11.3438,-7.4095 c 2.0206,-1.3793 3.7447,-2.4912 5.6094,-3.6938 l 1.1646,-0.7653 c 2.9567,-1.9605 9.392,-6.2284 11.2359,-5.9715 l 0.4751,0.0663 -0.1757,0.4454 c -0.0922,0.2328 -0.347,0.4965 -0.6505,0.7445 -0.2608,0.2146 -0.5682,0.4278 -0.8236,0.5943 l 0.0396,0.0398 c 0.7123,0.7225 2.2738,2.3066 3.0147,3.3641 2.5129,3.5861 3.414,7.0436 3.1515,10.1936 -0.1894,2.2705 -0.9829,4.377 -2.2123,6.2533 -1.2219,1.8647 -2.8786,3.5041 -4.8016,4.8518 -4.0957,2.8702 -9.4116,4.4163 -14.3273,4.0066 -1.4099,-0.1175 -2.7074,-0.4178 -3.9028,-0.8289 -1.1902,-0.4097 -2.2822,-0.9312 -3.2862,-1.4934 -1.7714,-0.9916 -2.7073,-2.0595 -3.7503,-3.2496 -0.2283,-0.2605 -0.4623,-0.5275 -0.7144,-0.8034 -0.6764,0.9788 -1.3905,1.8508 -2.2744,2.6015 -1.0055,0.8545 -2.2245,1.546 -3.8455,2.05 -3.0724,0.9552 -5.9459,0.7379 -8.3413,-0.3057 -1.4779,-0.6434 -2.773,-1.6013 -3.8192,-2.7902 -1.0445,-1.1866 -1.844,-2.6077 -2.3333,-4.1808 -0.8316,-2.674 -0.7635,-5.7857 0.5214,-8.9321 z m 23.8547,22.5887 c -0.9172,-0.1082 -1.912,-0.2265 -3.1321,-0.3106 -0.0158,0.9427 0.1076,1.5162 0.4064,1.9137 0.3377,0.4493 0.9514,0.7344 1.8713,1.1099 l 0.5696,0.2364 c 2.069,0.8589 5.579,2.3181 7.6935,1.782 0.6143,-0.1555 1.0662,-0.4323 1.3278,-0.8164 0.2521,-0.3698 0.338,-0.8583 0.234,-1.4541 -0.1064,-0.6104 -0.1787,-1.1013 -0.2355,-1.4887 -0.0913,-0.6255 -0.14,-0.9549 -0.2117,-1.0551 -0.013,-0.003 -0.1673,0.0205 -0.4786,0.0678 -0.1627,0.0247 -0.3556,0.0544 -0.5985,0.082 -3.4955,0.4002 -5.2523,0.1927 -7.4462,-0.0669 z m 16.4327,-1.7395 c -2.2432,0.7617 -4.5138,1.3227 -6.3726,1.4803 0.0357,0.6166 0.1436,1.4547 0.3042,2.2111 0.1454,0.6838 0.3279,1.2832 0.5256,1.5403 1.1955,1.5553 3.3248,2.1374 5.5808,2.2697 2.3149,0.1353 4.771,-0.2036 6.5314,-0.4614 0.3912,-0.0574 0.7875,-0.1582 1.1737,-0.297 1.0653,-0.3827 2.0788,-1.0534 2.7826,-1.9067 0.6829,-0.828 1.0706,-1.8299 0.9136,-2.9008 -0.0333,-0.2287 -0.0907,-0.4594 -0.173,-0.6889 -0.1234,-0.3431 -0.8165,-1.7089 -1.5068,-3.0123 -0.5152,-0.9726 -1.0222,-1.8996 -1.2764,-2.3188 -0.2592,0.1413 -0.4801,0.2941 -0.7138,0.4552 -0.2022,0.1397 -0.4153,0.2869 -0.6755,0.4433 -1.8674,1.1235 -4.4689,2.2949 -7.0938,3.186 z m -21.0222,1.1818 -2.432,-0.6455 c 0.231,0.2367 0.4986,0.4802 0.784,0.7195 0.5741,0.4811 1.2157,0.938 1.7806,1.2868 z m 30.8025,-6.2084 c 0.0913,0.2348 0.2477,0.5601 0.4397,0.9335 0.245,0.4754 0.5527,1.0376 0.8607,1.5951 0.2263,0.4094 0.421,0.8125 0.6077,1.2002 0.5816,1.2065 1.0921,2.2646 2.3411,2.8673 1.5121,0.7305 2.9986,1.0792 4.4534,1.0646 1.4788,-0.0142 2.9332,-0.4043 4.3577,-1.1494 2.0722,-1.0837 4.8984,-2.9558 6.4522,-5.2885 1.0507,-1.5772 1.5118,-3.3715 0.7248,-5.2719 -0.283,-0.6835 -0.4667,-1.0388 -0.6764,-1.2469 -0.1923,-0.1912 -0.4611,-0.2905 -0.9041,-0.4514 -0.8571,-0.3115 -1.6355,-0.5833 -2.3898,-0.8467 -1.0596,-0.3696 -2.074,-0.7239 -3.1586,-1.1357 l -0.6083,-0.2322 c -1.3643,-0.5254 -3.4295,-1.3186 -4.6514,-1.6156 -0.5646,1.7824 -1.7045,3.4824 -3.043,5.0284 -1.4092,1.6275 -3.0361,3.0849 -4.4373,4.2878 -0.2254,0.1933 -0.3152,0.2361 -0.3684,0.2614 z m 5.0207,-28.4244 -0.9654,0.2265 c 0.2676,0.3598 0.5489,0.702 0.839,1.0552 0.468,0.5699 0.9597,1.1684 1.4464,1.8897 0.3937,0.5839 0.7716,1.2439 1.1108,1.9477 0.3247,0.6743 0.6142,1.3899 0.8473,2.1171 1.2639,3.9415 0.881,5.8936 0.3999,8.3423 -0.1112,0.5678 -0.2286,1.1639 -0.3294,1.8109 0.8438,0.3832 3.2796,1.2121 5.0216,1.8047 0.6921,0.2354 1.2742,0.4337 1.6477,0.5684 0.4834,0.1745 0.9059,0.3342 1.3263,0.4927 3.2192,1.2142 6.3532,2.3963 9.8344,0.8369 1.0364,-0.4641 1.2344,-1.1842 1.5537,-2.3455 l 0.0729,-0.2655 c 0.3924,-1.4092 0.6101,-2.7543 0.6686,-4.0294 0.1695,-3.6804 -0.9826,-6.7936 -3.0409,-9.2247 -2.0683,-2.4436 -5.0551,-4.2081 -8.5411,-5.1794 -1.6854,-0.4698 -3.4889,-0.7543 -5.3608,-0.8405 -2.6791,-0.1234 -4.429,0.2931 -6.531,0.7929 z m -3.5677,0.5566 c -0.2305,-0.1856 -0.4665,-0.3744 -0.7415,-0.6494 l -0.2355,-0.2351 0.0401,-0.0515 c -0.016,-0.0883 0.0553,-0.2045 0.2664,-0.3802 0.2275,-0.1879 0.5524,-0.325 0.812,-0.4549 2.2456,-1.0082 4.9981,-1.599 7.7613,-1.7744 2.8426,-0.1804 5.7062,0.077 8.0482,0.768 1.0459,0.3089 2.0365,0.6671 2.9689,1.0715 4.3152,1.8701 7.3439,4.7121 8.9669,8.2028 1.6227,3.4901 1.8365,7.6198 0.5238,12.0672 -0.2836,0.9618 -0.641,1.9415 -1.0712,2.9345 -0.9418,2.1736 -2.6368,4.52 -4.6124,6.6838 -2.218,2.4293 -4.7971,4.6389 -7.0659,6.1219 l -0.5703,0.3758 c -0.7771,0.5153 -1.6126,1.0694 -2.4798,1.5243 -3.7646,1.9745 -7.2015,3.4566 -10.8403,4.4838 -3.6414,1.0281 -7.4844,1.6016 -12.0595,1.7583 -4.1736,0.1427 -8.7132,-0.2694 -12.9832,-1.3394 -3.8201,-0.9571 -7.431,-2.4415 -10.383,-4.5263 -0.715,-0.5048 -2.0814,-1.6717 -3.1434,-2.8934 -0.7469,-0.8592 -1.3522,-1.7589 -1.5032,-2.5102 l -0.113,-0.5604 0.5583,0.118 c 0.6871,0.1454 1.3787,0.3633 2.0907,0.5875 0.7353,0.2316 1.494,0.4706 2.27,0.6359 5.3602,1.1423 10.7825,1.2657 15.956,0.3446 5.0442,-0.8981 9.852,-2.7896 14.1336,-5.6964 1.887,-1.2811 4.2057,-3.3255 6.0039,-5.9079 1.3545,-1.9456 2.4111,-4.1947 2.7551,-6.6461 0.308,-2.1944 0.1246,-4.3796 -0.4599,-6.4034 -0.6053,-2.0961 -1.6412,-4.0209 -3.0073,-5.6061 -0.2164,-0.2512 -0.3791,-0.4591 -0.5298,-0.6511 -0.2176,-0.2777 -0.4109,-0.5245 -0.721,-0.8358 -0.2313,-0.2322 -0.4317,-0.393 -0.635,-0.5559 z m 27.7271,35.6629 c -0.3359,0.2626 -0.7218,0.5643 -0.9523,0.8093 l 2.8025,3.4994 c 1.6786,2.465 2.8108,4.3017 3.8088,6.2899 0.9984,1.9893 1.8532,4.1097 2.977,7.1437 1.2549,3.3873 2.3502,7.8529 2.8019,12.3467 0.3585,3.5657 0.3121,7.153 -0.3797,10.2406 1.5392,-0.1044 3.4351,-0.878 5.2984,-1.8989 3.1743,-1.7378 6.2233,-4.1805 7.3209,-5.3014 l 0.1106,-0.113 c 1.7182,-1.7523 3.222,-3.2861 2.2412,-6.7076 -0.3197,-1.1146 -0.8941,-2.4073 -1.5264,-3.6548 -0.6363,-1.2555 -1.3341,-2.4683 -1.893,-3.4113 -0.6196,-1.046 -1.2927,-2.1416 -1.9801,-3.2259 -0.7109,-1.122 -1.4128,-2.1956 -2.0645,-3.1583 -2.4728,-3.6533 -4.416,-6.4082 -6.474,-9.1051 -1.9931,-2.6119 -4.0909,-5.1628 -6.8818,-8.4187 l -4.674,4.2308 c -0.1418,0.1269 -0.3306,0.2744 -0.5355,0.4346 z m -47.6006,-60.348 c -1.8147,-0.6392 -3.9976,-0.9259 -5.8145,-0.6981 -2.3234,0.2914 -4.4828,1.1176 -6.3006,2.2361 -1.991,1.2249 -3.5677,2.7959 -4.4968,4.3933 -0.6737,1.1583 -0.9957,2.1296 -1.0397,2.9324 -0.0478,0.8884 0.2527,1.5722 0.7927,2.0791 0.5666,0.5319 1.4,0.8863 2.3799,1.089 1.7643,0.3651 3.9795,0.2379 6.003,-0.223 0.8661,-0.1971 1.8529,-0.525 2.8801,-0.9493 2.269,-0.9371 4.7233,-2.3416 6.5268,-3.8602 1.7316,-1.4581 2.8506,-2.9972 2.5625,-4.2632 -0.0211,-0.0933 -0.0511,-0.187 -0.0891,-0.2792 -0.4175,-1.0099 -1.7485,-1.8736 -3.4043,-2.4569 z m 9.0829,-0.124 c -1.4913,0.2572 -2.9547,0.5521 -4.2417,0.8952 l 0.2586,0.503 c 0.9556,1.8264 1.5511,2.966 -1.9616,6.5834 -1.8701,1.9257 -4.5168,3.5951 -7.3481,4.7694 -2.6202,1.0873 -5.4083,1.7548 -7.8921,1.8133 -2.5328,0.0598 -4.7617,-0.514 -6.2063,-1.917 -0.4314,-0.4192 -0.7921,-0.911 -1.0686,-1.4785 -0.77,0.2619 -1.9164,0.9989 -3.1452,1.9054 -2.2831,1.6855 -4.8185,3.9429 -5.846,4.9021 -3.1268,2.9184 -5.7334,6.5399 -7.4792,10.6018 -1.6259,3.7841 -2.5054,7.9503 -2.3615,12.2845 0.0838,2.5275 0.4359,4.6672 1.0537,6.6907 0.6187,2.0259 1.5076,3.945 2.6627,6.0277 0.126,0.2268 0.228,0.4091 0.3383,0.5878 0.1079,0.1745 0.2266,0.3499 0.388,0.5678 1.7024,2.2953 3.4125,4.2266 5.3629,5.9192 1.9492,1.692 4.1445,3.1515 6.8191,4.5051 7.8214,3.959 17.3912,6.1005 27.0856,6.3732 9.6905,0.2729 19.5012,-1.3207 27.8113,-4.8293 11.4244,-4.8232 17.3876,-11.6804 24.3637,-19.7036 0.8869,-1.0198 1.7889,-2.0568 2.5658,-2.938 0.379,-0.4282 0.4879,-0.5613 0.7388,-0.8691 0.6764,-0.8336 1.4324,-1.6405 2.1439,-2.4483 0.4564,-0.5851 1.2873,-1.4851 2.1787,-2.4008 1.1042,-1.1348 2.3113,-2.3047 3.0099,-2.9294 0.7335,-0.6553 1.4592,-1.2924 2.2201,-1.9001 0.7742,-0.6181 1.595,-1.2163 2.5143,-1.7904 1.7188,-1.0733 3.4863,-2.0467 5.4102,-2.9018 1.9218,-0.8553 3.9899,-1.5873 6.3062,-2.1778 2.2194,-0.5657 4.3556,-0.96 6.5165,-1.1954 2.1537,-0.2352 4.3315,-0.3116 6.6398,-0.2441 0.2025,0.006 0.3702,0.0187 0.5334,0.0306 l 0.0597,0.004 c -3.78,-1.387 -7.6997,-2.1496 -11.634,-2.3039 -4.4192,-0.1736 -8.8616,0.4192 -13.1492,1.7538 l -0.6326,0.1971 0.1549,-0.6439 c 0.2375,-0.9889 1.2927,-2.2156 2.6008,-3.3748 1.6754,-1.4845 3.7925,-2.8905 5.0942,-3.5148 2.7813,-1.334 5.5329,-2.0839 8.1787,-2.8048 5.6932,-1.5508 10.891,-2.9672 14.6675,-9.9189 0.3496,-0.6437 0.8259,-1.5392 1.2484,-2.4733 0.2625,-0.5807 0.5021,-1.1699 0.6707,-1.7096 -0.3606,0.2548 -0.8078,0.586 -1.265,0.9244 -0.7647,0.5661 -1.5582,1.1535 -2.0774,1.474 -0.7304,0.4508 -1.4291,0.8578 -2.148,1.2597 -0.7061,0.3946 -1.4449,0.7921 -2.2602,1.2273 -7.3878,3.9439 -14.1549,4.1576 -20.5388,4.3589 -3.045,0.096 -6.0033,0.1894 -8.8913,0.6907 -0.8331,0.1442 -1.6216,0.3092 -2.4302,0.478 l -0.4097,0.0854 c -0.4971,0.1031 -0.9633,0.247 -1.4227,0.3891 -0.4537,0.1398 -0.9023,0.2789 -1.3735,0.3794 l -0.7062,0.1508 0.3693,-0.8801 c 0.0354,-0.0889 0.0529,-0.1317 0.0865,-0.184 0.0378,-0.0598 0.0633,-0.0827 0.1106,-0.1279 0.0292,-0.0276 0.077,-0.0725 0.1701,-0.176 0.1974,-0.1974 0.388,-0.4028 0.5851,-0.5999 0.1876,-0.1868 0.3912,-0.3654 0.611,-0.5409 0.2206,-0.176 0.4554,-0.3487 0.7064,-0.5232 2.0128,-1.4018 4.5125,-2.0889 6.9196,-2.7504 1.0617,-0.2917 2.1061,-0.5789 3.0923,-0.9271 1.1206,-0.3957 2.1867,-0.8217 3.2035,-1.2825 1.0171,-0.4612 1.9855,-0.9568 2.9101,-1.4917 0.6469,-0.3743 2.0247,-1.2742 3.2112,-2.1876 0.3375,-0.2595 0.6583,-0.5194 0.9404,-0.7661 -0.3567,0.1067 -0.7272,0.2271 -1.0988,0.3481 -0.6511,0.212 -1.3067,0.4255 -1.937,0.5771 -2.5878,0.6226 -5.1747,1.0049 -7.7785,1.2309 -2.5923,0.2244 -5.222,0.2949 -7.8963,0.2937 -3.343,-0.002 -6.9131,-0.2283 -10.4707,-0.5747 -3.5662,-0.3473 -7.1093,-0.8131 -10.3981,-1.2933 -5.5163,-0.8054 -10.6381,-1.3733 -15.7578,-1.5487 -5.1193,-0.1754 -10.2474,0.0396 -15.7794,0.7983 -1.5276,0.2093 -3.2261,0.4504 -4.9068,0.7403 z m 31.7156,71.972 c -0.7745,-2.0104 -1.6754,-3.83 -2.6318,-5.0793 -0.4903,0.1606 -1.3222,0.5783 -2.0271,0.9318 -0.3859,0.1936 -0.737,0.3699 -0.9802,0.4781 -1.6879,0.7513 -3.4518,1.4134 -5.2496,1.9997 -1.7943,0.5857 -3.6323,1.1001 -5.4682,1.5567 -2.6448,0.6583 -5.3991,1.1334 -8.1932,1.4458 -2.9618,0.3315 -5.9775,0.4811 -8.9616,0.4742 -5.939,-0.0136 -11.576,-0.6065 -16.8227,-1.8118 -5.1247,-1.1776 -9.8805,-2.9398 -14.1856,-5.3174 -4.0252,-2.2232 -8.0877,-5.3441 -11.21,-9.4955 -2.5706,-3.4175 -4.5028,-7.5308 -5.2529,-12.4118 -0.6291,-4.0957 -0.4433,-8.0898 0.4439,-11.871 0.9225,-3.9322 2.6047,-7.6346 4.9178,-10.9814 0.935,-1.3531 1.9952,-2.674 3.1298,-3.9213 1.1708,-1.2864 2.4254,-2.5003 3.7083,-3.595 1.0361,-0.8845 2.1326,-1.7319 3.2606,-2.5373 1.2229,-0.8729 2.484,-1.6973 3.7479,-2.4671 0.1763,-0.1073 0.3553,-0.1849 0.534,-0.2619 0.3029,-0.1305 0.6065,-0.2619 0.7177,-0.4831 0.113,-0.2239 0.1605,-0.567 0.209,-0.9175 0.0467,-0.3375 0.0948,-0.6827 0.2066,-1.0032 1.0338,-2.9606 3.5291,-5.5014 6.6283,-7.2041 3.1336,-1.7214 6.8949,-2.5916 10.3877,-2.1751 0.7807,0.0928 1.4271,0.2251 2.0369,0.4049 0.6089,0.1796 1.1729,0.405 1.7921,0.685 0.6036,0.2733 0.947,0.4811 1.1854,0.625 0.1775,0.1091 0.2801,0.1709 0.3711,0.1819 0.1564,0.0194 0.4329,-0.0499 1.0774,-0.2111 l 0.7106,-0.1751 c 2.7115,-0.6588 5.4488,-1.1443 8.2218,-1.5112 2.7751,-0.3675 5.5811,-0.6166 8.4303,-0.8018 7.862,-0.5123 16.2536,0.5265 24.7873,1.5828 13.4144,1.6608 27.1852,3.3653 39.6675,-0.8797 0.4424,-0.1501 0.9276,-0.3526 1.4134,-0.5548 0.7349,-0.3059 1.4725,-0.6136 2.1109,-0.7656 l 0.7085,-0.1688 -0.2718,0.6761 c -0.608,1.5121 -2.4085,3.1274 -3.6489,4.2399 l -0.1222,0.1097 c -4.52,4.0598 -8.8949,5.417 -13.8734,6.9609 -0.6728,0.2087 -1.3569,0.4207 -2.0547,0.644 1.9774,-0.2682 3.8996,-0.3354 5.8499,-0.4031 1.087,-0.0378 2.1846,-0.0762 3.3343,-0.1529 2.2266,-0.1489 4.1098,-0.2815 5.9278,-0.528 1.8139,-0.2459 3.5817,-0.608 5.5945,-1.2175 1.6849,-0.5102 3.3703,-1.1283 4.9565,-1.8207 1.543,-0.6737 2.9972,-1.4194 4.2705,-2.2057 2.595,-1.6026 4.8058,-3.4209 6.2114,-4.5768 0.6592,-0.5423 1.1465,-0.9428 1.4319,-1.123 l 0.6015,-0.3797 -0.0247,0.7103 c -0.0491,1.4024 -0.5266,3.1129 -1.167,4.784 -0.8708,2.2733 -2.0523,4.4975 -2.8601,5.7622 -3.8725,6.0631 -8.7531,7.3888 -14.3057,8.8964 -1.4836,0.4026 -3.0162,0.8194 -4.5533,1.3311 -1.5252,0.5075 -3.7262,1.5219 -5.5751,2.6339 -1.0183,0.6124 -1.9233,1.2493 -2.5337,1.8365 l 0.5785,-0.1026 c 2.2688,-0.4023 4.1871,-0.743 6.8608,-0.7501 2.5227,-0.007 5.2514,0.2785 7.9147,0.789 2.7207,0.5212 5.3822,1.2791 7.6956,2.2016 0.8895,0.3547 2.2006,0.8887 3.3932,1.4509 1.2281,0.5794 2.3552,1.2017 2.8494,1.7283 l 0.6755,0.7203 -0.9823,-0.0877 c -1.4155,-0.126 -2.6205,-0.2533 -3.7295,-0.3704 -4.9755,-0.5248 -8.064,-0.8509 -14.7374,0.4373 -4.1168,0.7947 -7.3403,1.9099 -10.2301,3.4131 -2.8967,1.5068 -5.4637,3.4042 -8.2617,5.7604 -0.6808,0.5735 -2.4278,2.4362 -4.2581,4.4627 -2.2396,2.4795 -4.6006,5.2023 -5.2873,6.1106 l -5.5865,6.4415 c 0.3452,0.4469 0.718,0.8411 1.1063,1.2517 0.2768,0.2928 0.5616,0.5943 0.8396,0.9139 1.3869,1.5957 2.5423,3.1102 3.6718,4.5902 0.7706,1.0103 1.5299,2.0051 2.3285,2.9826 0.6645,0.8135 1.3221,1.7006 1.9646,2.6095 0.6303,0.8919 1.2648,1.8317 1.8773,2.7445 l 3.6007,5.3753 c 1.0212,1.5202 2.3163,3.5279 3.4916,5.6481 1.1812,2.1302 2.242,4.3764 2.7867,6.363 0.4388,1.6004 0.4061,2.9689 0.0687,4.1546 -0.3375,1.1866 -0.9779,2.1832 -1.7533,3.043 -2.1002,2.3291 -5.7143,5.3646 -9.5674,7.3382 -2.9047,1.4874 -5.9549,2.3761 -8.6208,1.9221 -1.032,-0.1754 -2.0681,-0.5218 -3.0487,-0.9487 -1.2394,-0.5396 -2.3888,-1.2071 -3.3292,-1.8216 -5.7578,-3.7616 -5.761,-4.6797 -5.7747,-9.2384 -0.003,-0.9864 -0.007,-2.1528 -0.0761,-3.5834 -0.063,-1.2999 -0.1766,-2.6699 -0.3348,-4.0381 -0.154,-1.3287 -0.3502,-2.6473 -0.5839,-3.8888 -0.4412,-2.3434 -1.2002,-5.095 -2.1513,-7.5642 z"
       style="fill:url(#grad4)"
       id="path10" />
    <defs
       id="defs13">
      <linearGradient
         id="grad5">
        <stop
           offset="0.0000%"
           stop-color="#06255d"
           stop-opacity="1.0000"
           id="stop11" />
        <stop
           offset="58.0000%"
           stop-color="#102a83"
           stop-opacity="1.0000"
           id="stop12" />
        <stop
           offset="100.0000%"
           stop-color="#06255d"
           stop-opacity="1.0000"
           id="stop13" />
      </linearGradient>
      <linearGradient
         xlink:href="#grad5"
         id="grad6"
         x1="25.605469"
         y1="2033.8958"
         x2="25.605469"
         y2="2117.6289"
         gradientTransform="scale(5.2482578,0.19053942)"
         gradientUnits="userSpaceOnUse" />
    </defs>
    <path
       d="m 146.3758,390.2891 h -8.3433 v 4.2361 h 8.3433 c 0.6444,0 1.082,-0.0928 1.3192,-0.2784 0.2371,-0.1855 0.3557,-0.5206 0.3557,-0.9944 v -1.7059 c 0,-0.464 -0.1186,-0.7887 -0.3557,-0.979 -0.2372,-0.1856 -0.6748,-0.2784 -1.3192,-0.2784 z m -11.9917,13.2027 v -15.9545 h 13.6357 c 1.2728,0 2.1951,0.2423 2.7622,0.7315 0.5717,0.4846 0.8552,1.2677 0.8552,2.3554 v 3.5659 c 0,1.0821 -0.2835,1.8657 -0.8552,2.355 -0.5671,0.4897 -1.4894,0.732 -2.7622,0.732 h -9.9873 v 6.2147 z m 54.0942,-2.9994 h 4.8032 c 2.556,0 4.3696,-0.3964 5.4367,-1.1955 1.0666,-0.7934 1.6023,-2.1074 1.6023,-3.9422 0,-1.6337 -0.4429,-2.8704 -1.3296,-3.7102 -0.8862,-0.8403 -2.1951,-1.2626 -3.9267,-1.2626 h -6.5859 z m -3.7102,2.9994 v -15.9545 h 10.2651 c 2.9323,0 5.1842,0.6851 6.756,2.0507 1.577,1.3708 2.3658,3.3138 2.3658,5.8286 0,1.4893 -0.3094,2.8292 -0.9228,4.0247 -0.613,1.1903 -1.4791,2.1281 -2.5973,2.8137 -0.6954,0.4331 -1.5563,0.747 -2.5869,0.9429 -1.0357,0.1959 -2.3549,0.2939 -3.968,0.2939 z m 65.5915,-13.2027 h -8.3433 v 4.4526 h 8.3433 c 0.6444,0 1.0821,-0.0927 1.3192,-0.2783 0.2371,-0.1908 0.3557,-0.5207 0.3557,-0.995 v -1.9219 c 0,-0.464 -0.1186,-0.7887 -0.3557,-0.979 -0.2371,-0.1856 -0.6748,-0.2784 -1.3192,-0.2784 z m -11.9917,13.2027 v -15.9545 h 13.6357 c 1.2728,0 2.1951,0.2423 2.7622,0.7315 0.5717,0.4846 0.8552,1.2677 0.8552,2.3554 v 3.7515 c 0,1.077 -0.2835,1.86 -0.8552,2.3498 -0.5671,0.4897 -1.4894,0.7367 -2.7622,0.7367 h -2.0822 l 7.3746,6.0296 h -5.3285 l -6.4312,-6.0296 h -3.52 v 6.0296 z m 77.9904,-13.1717 h -10.4512 v 3.4318 h 9.9512 c 1.5667,0 2.6178,0.2681 3.1694,0.7991 0.5511,0.5356 0.8244,1.5254 0.8244,2.9782 v 2.1956 c 0,1.443 -0.2733,2.4374 -0.8244,2.9684 -0.5516,0.5305 -1.6027,0.7986 -3.1694,0.7986 h -9.8584 c -1.5611,0 -2.6179,-0.2681 -3.1638,-0.7986 -0.5516,-0.531 -0.8249,-1.5254 -0.8249,-2.9684 v -0.4382 l 3.2777,-0.6799 v 1.8857 h 11.286 v -3.6483 h -9.9564 c -1.5512,0 -2.5972,-0.2681 -3.1437,-0.7986 -0.5408,-0.531 -0.814,-1.5203 -0.814,-2.9684 v -1.7677 c 0,-1.4481 0.2732,-2.4374 0.814,-2.9736 0.5465,-0.5305 1.5925,-0.7985 3.1437,-0.7985 h 9.0593 c 1.4997,0 2.5354,0.2577 3.1025,0.7676 0.5717,0.5155 0.8552,1.4223 0.8552,2.7312 v 0.3351 l -3.2772,0.7728 z m 43.0507,13.1717 v -7.1375 l -8.2866,-8.817 h 4.9521 l 5.478,6.127 5.4935,-6.127 h 4.3598 l -8.2557,8.7242 v 7.2303 z m 57.5472,-13.1717 h -10.4513 v 3.4318 h 9.9512 c 1.5667,0 2.6179,0.2681 3.1695,0.7991 0.5511,0.5356 0.8243,1.5254 0.8243,2.9782 v 2.1956 c 0,1.443 -0.2732,2.4374 -0.8243,2.9684 -0.5516,0.5305 -1.6028,0.7986 -3.1695,0.7986 h -9.8584 c -1.561,0 -2.6178,-0.2681 -3.1638,-0.7986 -0.5516,-0.531 -0.8248,-1.5254 -0.8248,-2.9684 v -0.4382 l 3.2777,-0.6799 v 1.8857 h 11.2859 v -3.6483 h -9.9564 c -1.5512,0 -2.5972,-0.2681 -3.1437,-0.7986 -0.5407,-0.531 -0.814,-1.5203 -0.814,-2.9684 v -1.7677 c 0,-1.4481 0.2733,-2.4374 0.814,-2.9736 0.5465,-0.5305 1.5925,-0.7985 3.1437,-0.7985 h 9.0594 c 1.4996,0 2.5353,0.2577 3.1024,0.7676 0.5717,0.5155 0.8553,1.4223 0.8553,2.7312 v 0.3351 l -3.2772,0.7728 z m 46.0185,0.0618 v 13.1099 h -3.7103 v -13.1099 h -7.3277 v -2.8446 h 18.3971 v 2.8446 z m 39.3099,13.1099 v -15.9545 h 16.3257 v 2.7209 h -12.6154 v 3.5556 h 7.3591 v 2.7209 h -7.3591 v 3.9577 h 12.7701 v 2.9994 z m 50.7139,0 v -15.9545 h 2.9994 l 7.5236,9.647 7.3437,-9.647 h 2.973 v 15.9545 h -3.4319 v -9.8584 c 0,-0.1908 0.0103,-0.4326 0.0361,-0.7213 0.0258,-0.2938 0.0619,-0.6186 0.098,-0.9841 -0.2011,0.4119 -0.3764,0.7522 -0.5259,1.0202 -0.1546,0.2681 -0.2881,0.4841 -0.4067,0.6542 l -5.9987,7.9721 h -0.7367 l -6.0141,-7.9978 c -0.2217,-0.3037 -0.4124,-0.5872 -0.5666,-0.8553 -0.1546,-0.2681 -0.2835,-0.5258 -0.3866,-0.7779 0.0309,0.3345 0.0567,0.6336 0.0722,0.9068 0.0154,0.2732 0.0206,0.531 0.0206,0.7831 v 9.8584 z"
       style="fill:url(#grad6)"
       id="path13" />
    <defs
       id="defs17">
      <linearGradient
         id="grad7">
        <stop
           offset="0.0000%"
           stop-color="#981418"
           stop-opacity="1.0000"
           id="stop14" />
        <stop
           offset="48.0000%"
           stop-color="#e30016"
           stop-opacity="1.0000"
           id="stop15" />
        <stop
           offset="79.0000%"
           stop-color="#e30016"
           stop-opacity="1.0000"
           id="stop16" />
        <stop
           offset="100.0000%"
           stop-color="#981418"
           stop-opacity="1.0000"
           id="stop17" />
      </linearGradient>
      <linearGradient
         xlink:href="#grad7"
         id="grad8"
         x1="47.755062"
         y1="891.38165"
         x2="47.755062"
         y2="1045.1368"
         gradientTransform="scale(2.8581807,0.34987292)"
         gradientUnits="userSpaceOnUse" />
    </defs>
    <path
       d="m 212.6998,311.8703 v 53.7932 h -25.9253 l -29.2876,-34.7414 v 34.7414 h -20.9943 v -53.7932 h 25.8506 l 29.3623,34.7413 v -34.7413 z m 279.2764,53.7932 h 5e-4 -5e-4 -22.2641 -5e-4 l -21.8532,-39.3801 -21.8532,39.3801 h -5e-4 -22.2641 l 29.5629,-51.4146 h 5e-4 l 1.3677,-2.3786 h 17.0289 1.8394 7.5051 l 1.3677,2.3786 h 5e-4 z M 297.871,328.1718 c -0.017,-2.2405 -0.4516,-4.3366 -1.3063,-6.29 -0.8718,-1.9925 -2.0544,-3.7355 -3.5489,-5.23 -1.494,-1.494 -3.2375,-2.6647 -5.2295,-3.5112 -1.9925,-0.8471 -4.1093,-1.2703 -6.3508,-1.2703 h -23.21 -20.4969 l -0.1051,5e-4 -0.1047,5e-4 -0.1046,0.002 v 5e-4 l -0.1042,0.002 -0.1046,0.002 -0.1036,0.004 -0.1042,0.004 v 6e-4 l -0.2072,0.01 v 5e-4 c -1.8961,0.102 -3.6994,0.517 -5.4125,1.2445 -1.9925,0.8465 -3.7355,2.0172 -5.23,3.5112 -1.494,1.4945 -2.6772,3.2375 -3.5489,5.23 -0.8543,1.9534 -1.2894,4.0495 -1.3064,6.29 l -5e-4,0.0283 v 0.0763 l -5e-4,0.031 v 0.0742 20.7706 0.0742 l 5e-4,0.0309 v 0.0763 l 5e-4,0.0284 c 0.017,2.2405 0.4527,4.3366 1.3064,6.2899 0.8717,1.9925 2.0549,3.7355 3.5489,5.23 1.4945,1.494 3.2375,2.6648 5.23,3.5113 1.712,0.7279 3.5164,1.1424 5.4125,1.2445 v 5e-4 l 0.2072,0.01 v 5e-4 l 0.1042,0.004 0.1036,0.004 0.1046,0.003 0.1042,0.002 v 5e-4 l 0.1046,10e-4 0.1047,5e-4 0.1051,6e-4 h 20.4969 23.21 c 2.2415,0 4.3583,-0.4233 6.3508,-1.2703 1.992,-0.8465 3.7355,-2.0173 5.2295,-3.5113 1.4945,-1.4945 2.6771,-3.2375 3.5489,-5.23 0.8542,-1.9533 1.2893,-4.05 1.3063,-6.2899 l 5e-4,-0.0284 v -0.0763 l 6e-4,-0.0309 v -0.0742 -20.7706 -0.0742 l -6e-4,-0.031 v -0.0763 z m -55.5851,5.2156 c 0,-1.295 0.4609,-2.4158 1.3821,-3.3618 0.9218,-0.9465 2.0549,-1.4445 3.3994,-1.4945 h 24.9541 c 1.345,0.05 2.4905,0.548 3.437,1.4945 0.9465,0.946 1.4193,2.0668 1.4193,3.3618 v 10.759 c 0,1.295 -0.4728,2.4158 -1.4193,3.3618 -0.9465,0.9465 -2.092,1.4445 -3.437,1.4945 h -24.9541 c -1.3445,-0.05 -2.4776,-0.548 -3.3994,-1.4945 -0.9212,-0.946 -1.3821,-2.0668 -1.3821,-3.3618 z m 155.851,-21.5171 v 53.7932 h -20.9943 v -32.9484 l -17.1093,32.9484 h -15.5401 l -17.0345,-32.9484 v 32.9484 h -20.9943 v -53.7932 h 28.7643 l 17.1093,35.2646 18.3048,-35.2646 z m 5.6037,53.7932 h -5e-4 z m 155.701,-53.7932 c 2.291,0 4.433,0.4356 6.4255,1.3074 1.992,0.8717 3.7355,2.0549 5.2295,3.5489 1.4945,1.4945 2.6772,3.2375 3.5489,5.23 0.8718,1.9925 1.3074,4.134 1.3074,6.425 v 20.9196 c 0,2.192 -0.4356,4.2711 -1.3074,6.2389 -0.8717,1.9672 -2.0544,3.6978 -3.5489,5.1923 -1.494,1.494 -3.2375,2.6895 -5.2295,3.586 -1.9925,0.8965 -4.1345,1.3451 -6.4255,1.3451 h -30.1093 l -8.9656,-16.5113 h 29.7356 c 1.395,0 2.5529,-0.4857 3.4741,-1.4569 0.9218,-0.9713 1.3827,-2.1049 1.3827,-3.3999 v -11.057 c 0,-1.295 -0.4609,-2.4287 -1.3827,-3.3999 -0.9212,-0.9713 -2.0791,-1.4569 -3.4741,-1.4569 h -31.5286 v 37.2819 h -20.9943 v -53.7932 z"
       style="fill:url(#grad8)"
       id="path17" />
    <defs
       id="defs20">
      <linearGradient
         id="grad9">
        <stop
           offset="0.0000%"
           stop-color="#06255d"
           stop-opacity="1.0000"
           id="stop18" />
        <stop
           offset="58.0000%"
           stop-color="#102a83"
           stop-opacity="1.0000"
           id="stop19" />
        <stop
           offset="100.0000%"
           stop-color="#06255d"
           stop-opacity="1.0000"
           id="stop20" />
      </linearGradient>
      <linearGradient
         xlink:href="#grad9"
         id="grad10"
         x1="312.6395"
         y1="476.25711"
         x2="312.6395"
         y2="494.98215"
         gradientTransform="scale(1.3908005,0.71901036)"
         gradientUnits="userSpaceOnUse" />
    </defs>
    <path
       d="m 442.2706,342.4338 h 11.1204 l 7.471,13.4635 h -26.0428 c 2.4817,-4.4892 4.9661,-8.9763 7.4514,-13.4635 z"
       style="fill:url(#grad10)"
       id="path20" />
    <path
       d="m 443.8404,345.0981 c -1.5012,2.7111 -3.003,5.4228 -4.5031,8.135 h 16.9995 l -4.5145,-8.135 z"
       style="fill:none"
       id="path21" />
    <path
       d="m 210.0356,314.5345 h -15.6659 v 39.3569 l -33.2633,-39.3569 h -21.9496 v 48.4647 h 15.6659 v -39.3708 l 33.1906,39.3708 h 22.0223 z m 73.7193,0.1944 c -4.0407,1.8198 -8.4206,2.7591 -12.8588,2.7591 -4.5939,0 -9.1228,-1.0073 -13.2774,-2.9535 h -19.8901 c -1.8363,0 -3.6009,0.348 -5.2831,1.0842 -1.6543,0.7238 -3.1354,1.7136 -4.4139,2.9916 -1.2816,1.2821 -2.2678,2.7761 -2.987,4.4402 -0.7341,1.6997 -1.0888,3.4788 -1.0888,5.3311 v 20.8448 c 0,1.8574 0.3392,3.6546 1.0842,5.3579 0.7238,1.6548 1.7136,3.1359 2.9916,4.4139 1.2677,1.2677 2.738,2.2415 4.3882,2.9432 1.6929,0.7191 3.4689,1.0578 5.3088,1.0578 h 43.7069 c 1.8399,0 3.6154,-0.3382 5.3084,-1.0578 1.6502,-0.7017 3.1205,-1.676 4.3882,-2.9432 1.278,-1.2785 2.2678,-2.7596 2.9916,-4.4139 0.7459,-1.7049 1.0841,-3.5005 1.0841,-5.3579 v -20.8448 c 0,-1.8523 -0.3541,-3.6314 -1.0888,-5.3311 -0.7191,-1.6641 -1.7048,-3.1581 -2.9869,-4.4402 -1.277,-1.277 -2.7586,-2.2678 -4.414,-2.9916 -0.9537,-0.4176 -1.943,-0.714 -2.9632,-0.8898 z m -4.2129,18.5837 v 10.8338 c 0,2.024 -0.7697,3.8164 -2.1998,5.246 -1.4249,1.4244 -3.2091,2.1977 -5.2217,2.2724 l -0.099,0.002 h -25.0036 l -0.0495,-0.002 c -2.0157,-0.0747 -3.8009,-0.8521 -5.2088,-2.2977 -1.3966,-1.4342 -2.1379,-3.2179 -2.1379,-5.2207 v -10.8338 c 0,-2.0028 0.7413,-3.786 2.1373,-5.2202 1.4317,-1.4708 3.2571,-2.2255 5.3084,-2.2255 h 24.9541 c 2.0482,0 3.8726,0.7516 5.3207,2.2002 1.4301,1.4296 2.1998,3.221 2.1998,5.2455 z m 115.9306,-18.7781 h -23.211 l -20.004,38.5382 -18.6977,-38.5382 h -24.4313 v 48.4647 h 15.6658 v -41.2385 l 21.3207,41.2385 h 12.2994 l 21.3923,-41.1957 v 41.1957 h 15.6658 z m 28.9577,48.4647 c 6.9988,-12.7041 14.0398,-25.3809 21.0587,-38.0732 l 2.3276,-4.2087 23.4637,42.2819 h 16.0907 l -27.8674,-48.4647 h -7.1957 c -4.1562,1.9477 -8.6882,2.9535 -13.2836,2.9535 -1.4512,0 -2.9008,-0.1005 -4.3371,-0.3006 l -26.3419,45.8118 z m 75.8134,-48.4647 v 48.4647 h 15.6658 v -37.2819 h 34.1928 c 2.0956,0 3.9624,0.7646 5.4069,2.2874 1.3754,1.4497 2.1141,3.2334 2.1141,5.2337 v 11.057 c 0,2.0002 -0.7387,3.784 -2.1141,5.2336 -1.4445,1.5229 -3.3113,2.2874 -5.4069,2.2874 h -25.2572 l 6.0724,11.1828 h 28.5241 c 1.8538,0 3.6406,-0.349 5.3321,-1.1104 1.6595,-0.7465 3.1524,-1.7533 4.4392,-3.0401 1.2728,-1.2728 2.2673,-2.7416 2.9968,-4.3882 0.7279,-1.6424 1.0789,-3.3622 1.0789,-5.1593 v -20.9196 c 0,-1.8575 -0.3381,-3.6525 -1.0841,-5.3574 -0.7238,-1.6543 -1.7136,-3.1354 -2.9916,-4.4139 -1.2775,-1.277 -2.7591,-2.2678 -4.4139,-2.9916 -1.7028,-0.7455 -3.5,-1.0842 -5.3574,-1.0842 z"
       style="fill:none"
       id="path22" />
    <g
       id="Layer1001">
      <path
         d="m 585.1074,400.8948 4.4802,-77.3908 0.2092,-0.218 c 20.5997,-21.4845 39.9951,-13.8437 59.4016,-6.1976 18.4582,7.2724 36.9289,14.5493 56.2992,-4.9811 l 1.9777,-1.9942 c -1.6467,26.3122 -3.2884,52.6246 -4.9409,78.9365 l -0.2096,0.219 c -20.258,21.1468 -39.2854,13.7692 -58.4345,6.3443 -18.5066,-7.1759 -37.1327,-14.398 -56.9626,5.8655 l -1.9705,2.0136 z m 6.4988,-76.7427 -4.3016,74.3075 c 20.0981,-18.8994 38.837,-11.634 57.4591,-4.4132 18.3479,7.1142 36.5802,14.18 55.7513,-5.6433 l 4.5873,-73.289 c -19.6571,18.1647 -38.2284,10.849 -56.7879,3.5367 -18.606,-7.3307 -37.2016,-14.6531 -56.7082,5.5013 z"
         style="fill:#1b1918;fill-rule:evenodd"
         id="path23" />
      <path
         d="m 588.9757,369.592 c -1.3141,10.1244 -1.9711,15.1865 -1.9711,15.1865 7.0697,-7.251 13.9912,-11.2957 20.7647,-12.1341 -0.0482,-10.2016 -0.0723,-15.3024 -0.0723,-15.3024 -7.2737,2.4058 -13.514,6.4889 -18.7213,12.25 z"
         style="fill:#1b1918;fill-rule:evenodd"
         id="path24" />
      <path
         d="m 589.6377,339.0299 c -0.3528,9.6274 -0.5291,14.441 -0.5291,14.441 9.3349,-8.3175 15.948,-12.1067 19.8393,-11.3674 0.5038,-10.1142 0.7557,-15.1714 0.7557,-15.1714 -5.9435,1.5476 -12.6323,5.5802 -20.0659,12.0978 z"
         style="fill:#1b1918;fill-rule:evenodd"
         id="path25" />
      <path
         d="m 627.6777,342.412 c -5.7509,-2.1681 -11.9941,-2.271 -18.7298,-0.3085 -0.8338,10.159 -1.2509,15.2385 -1.2509,15.2385 6.8352,-1.4832 13.3648,-1.4257 19.5891,0.1719 0.261,-10.068 0.3916,-15.1019 0.3916,-15.1019 z"
         style="fill:#1b1918;fill-rule:evenodd"
         id="path26" />
      <path
         d="m 630.5465,311.3273 c -7.7033,-1.9921 -14.3658,-2.0896 -19.9878,-0.2924 0,0 -0.285,5.2992 -0.8551,15.8972 3.9195,-1.8111 10.3053,-1.7829 19.1573,0.0847 -0.7656,-7.4638 -0.2036,-12.6938 1.6856,-15.6895 z"
         style="fill:#1b1918;fill-rule:evenodd"
         id="path27" />
      <path
         d="m 646.7291,348.4724 c -8.4986,-3.2332 -14.8491,-5.2533 -19.0514,-6.0604 0.7887,-10.2633 1.1832,-15.3952 1.1832,-15.3952 12.3495,4.4222 18.5241,6.6334 18.5241,6.6334 -0.4373,9.8814 -0.6559,14.8222 -0.6559,14.8222 z"
         style="fill:#1b1918;fill-rule:evenodd"
         id="path28" />
      <path
         d="m 625.8264,372.9584 c 0.973,-10.2964 1.4597,-15.4445 1.4597,-15.4445 12.2725,4.4682 18.4085,6.7024 18.4085,6.7024 -0.4078,10.0434 -0.6117,15.0649 -0.6117,15.0649 -7.7018,-3.7763 -14.1205,-5.884 -19.2565,-6.3228 z"
         style="fill:#1b1918;fill-rule:evenodd"
         id="path29" />
      <path
         d="m 624.9234,387.9141 c 0.602,-9.9706 0.903,-14.9557 0.903,-14.9557 -4.6876,-1.565 -10.7066,-1.6696 -18.0571,-0.314 -1.0212,10.4256 -1.532,15.6384 -1.532,15.6384 5.3926,-1.3094 11.6213,-1.4325 18.6861,-0.3687 z"
         style="fill:#1b1918;fill-rule:evenodd"
         id="path30" />
      <path
         d="m 662.5839,400.7789 c -8.7886,-2.5651 -15.0515,-4.6805 -18.7887,-6.3467 0.7258,-4.4488 1.1551,-9.4991 1.2877,-15.151 6.9169,3.4629 13.1533,5.6495 18.7097,6.5598 -0.806,9.9586 -1.2087,14.9379 -1.2087,14.9379 z"
         style="fill:#1b1918;fill-rule:evenodd"
         id="path31" />
      <path
         d="m 665.1965,355.7339 c -0.6837,9.8548 -1.0255,14.7821 -1.0255,14.7821 0,0 -6.1588,-2.0999 -18.4764,-6.2997 0.6895,-10.496 1.0345,-15.7439 1.0345,-15.7439 5.4115,2.5742 11.5672,4.9948 18.4674,7.2615 z"
         style="fill:#1b1918;fill-rule:evenodd"
         id="path32" />
      <path
         d="m 667.06,324.2271 c -5.3743,-1.1365 -11.6493,-3.3716 -18.8255,-6.7051 0.1284,4.3422 -0.1548,9.7183 -0.8495,16.1282 12.259,4.2452 18.3887,6.3679 18.3887,6.3679 0.8575,-10.5272 1.2863,-15.791 1.2863,-15.791 z"
         style="fill:#1b1918;fill-rule:evenodd"
         id="path33" />
      <path
         d="m 682.7979,386.3957 c -6.3009,1.2191 -12.636,1.0342 -19.0053,-0.5547 0.2522,-10.2167 0.3784,-15.325 0.3784,-15.325 7.385,1.7767 13.6011,1.9717 18.6484,0.5857 -0.0143,10.1959 -0.0215,15.294 -0.0215,15.294 z"
         style="fill:#1b1918;fill-rule:evenodd"
         id="path34" />
      <path
         d="m 684.7082,355.7955 c -6.8891,1.8159 -13.393,1.7953 -19.5117,-0.0616 0.3849,-10.4772 0.5772,-15.7158 0.5772,-15.7158 5.4787,1.8542 11.8206,2.0585 19.0262,0.6135 -0.0612,10.1093 -0.0917,15.1639 -0.0917,15.1639 z"
         style="fill:#1b1918;fill-rule:evenodd"
         id="path35" />
      <path
         d="m 706.1727,313.5198 c -6.3849,6.0892 -13.1285,9.8912 -20.2306,11.4063 0,0 -0.3808,5.2353 -1.1422,15.7055 8.1373,-2.4905 15.1126,-6.9874 20.926,-13.4913 0.298,-9.0803 0.4468,-13.6205 0.4468,-13.6205 z"
         style="fill:#1b1918;fill-rule:evenodd"
         id="path36" />
      <path
         d="m 703.5664,358.1104 c -7.8766,7.3331 -14.7924,11.6633 -20.747,12.9913 1.2592,-10.2043 1.8888,-15.3062 1.8888,-15.3062 8.1953,-1.888 14.8324,-6.3271 19.9113,-13.3173 -0.7022,10.4214 -1.0531,15.6322 -1.0531,15.6322 z"
         style="fill:#1b1918;fill-rule:evenodd"
         id="path37" />
      <path
         d="m 701.5164,386.6725 c -0.1248,5.0542 -6.7119,9.8308 -19.7615,14.3299 0,0 0.3477,-4.8689 1.043,-14.6067 8.8381,-2.7074 15.1456,-6.7697 18.9228,-12.1863 -0.136,8.3087 -0.2043,12.4631 -0.2043,12.4631 z"
         style="fill:#1b1918;fill-rule:evenodd"
         id="path38" />
    </g>
    <g
       id="Layer1002">
      <path
         d="m 696.5806,285.8741 c 3.0067,0 5.7303,1.2199 7.7015,3.1907 1.9731,1.9735 3.193,4.6971 3.193,7.7038 0,3.007 -1.2199,5.7302 -3.1906,7.7014 -1.9736,1.9731 -4.6972,3.193 -7.7039,3.193 -3.007,0 -5.7302,-1.2199 -7.7014,-3.1907 -1.9731,-1.9735 -3.193,-4.6967 -3.193,-7.7037 0,-3.0067 1.2199,-5.7303 3.1907,-7.7015 1.9735,-1.9731 4.6967,-3.193 7.7037,-3.193 z m 6.3581,4.5364 c -1.6264,-1.6255 -3.875,-2.632 -6.3581,-2.632 -2.4834,0 -4.7316,1.0065 -6.358,2.632 -1.6255,1.6264 -2.6319,3.875 -2.6319,6.3581 0,2.4834 1.0064,4.7316 2.6319,6.358 1.6264,1.6255 3.8746,2.6319 6.358,2.6319 2.4831,0 4.7317,-1.0064 6.3581,-2.6319 1.6255,-1.6264 2.632,-3.8746 2.632,-6.358 0,-2.4831 -1.0065,-4.7317 -2.632,-6.3581 z"
         style="fill:#1b1918;fill-rule:evenodd"
         id="path39" />
      <path
         d="m 692.7009,302.107 v -10.5372 h 4.4813 c 1.1257,0 1.9451,0.0957 2.4551,0.2847 0.5128,0.1887 0.9199,0.5249 1.2265,1.0079 0.3065,0.4858 0.4611,1.0377 0.4611,1.6606 0,0.7923 -0.2307,1.4446 -0.6941,1.9597 -0.4637,0.5151 -1.1553,0.8389 -2.0775,0.9739 0.4585,0.2672 0.8363,0.5617 1.1331,0.8829 0.2993,0.3213 0.7016,0.8927 1.2067,1.7121 l 1.2854,2.0554 h -2.5435 l -1.5256,-2.3008 c -0.5471,-0.8168 -0.9223,-1.3319 -1.126,-1.5451 -0.2011,-0.2109 -0.4145,-0.3583 -0.6401,-0.4367 -0.2281,-0.0784 -0.5861,-0.1178 -1.0768,-0.1178 h -0.4316 v 4.4004 z m 2.134,-6.078 h 1.5745 c 1.0205,0 1.6557,-0.0442 1.9109,-0.1301 0.2525,-0.0857 0.4536,-0.2353 0.5959,-0.4462 0.1447,-0.2111 0.216,-0.476 0.216,-0.7924 0,-0.3557 -0.0957,-0.6401 -0.2847,-0.8608 -0.1888,-0.2183 -0.456,-0.3557 -0.7996,-0.4122 -0.1741,-0.0245 -0.6916,-0.0368 -1.5526,-0.0368 h -1.6604 z"
         style="fill:#1b1918;fill-rule:evenodd"
         id="path40" />
    </g>
  </g>
</svg>
